<?xml version="1.0" standalone="no"?>
<!DOCTYPE svg PUBLIC "-//W3C//DTD SVG 20010904//EN"
 "http://www.w3.org/TR/2001/REC-SVG-20010904/DTD/svg10.dtd">
<svg version="1.0" xmlns="http://www.w3.org/2000/svg"
 width="200.000000pt" height="200.000000pt" viewBox="0 0 200.000000 200.000000"
 preserveAspectRatio="xMidYMid meet">

<g transform="translate(0.000000,200.000000) scale(0.100000,-0.100000)"
fill="#000000" stroke="none">
<path d="M740 1836 c-140 -41 -277 -153 -336 -276 -102 -210 -65 -455 92 -614
l52 -53 -62 -35 c-137 -80 -247 -198 -316 -342 -45 -94 -67 -172 -76 -275 -6
-65 -5 -76 11 -87 15 -12 158 -14 794 -14 l776 0 57 24 c81 33 130 76 169 148
30 56 33 71 34 143 0 61 -5 91 -21 126 -31 66 -87 124 -152 156 -76 37 -193
40 -261 6 l-43 -22 -64 55 c-35 30 -89 68 -119 85 l-55 31 50 55 c93 101 137
204 147 338 16 230 -127 451 -347 537 -69 26 -260 35 -330 14z m297 -67 c205
-70 334 -266 320 -484 -6 -98 -34 -175 -92 -254 -82 -112 -207 -179 -351 -188
-147 -10 -260 33 -367 138 -151 151 -185 353 -91 549 101 212 356 317 581 239z
m-342 -954 c129 -49 281 -44 409 13 l58 26 56 -29 c31 -16 87 -54 124 -83 l67
-54 -24 -32 c-96 -126 -91 -308 11 -407 19 -18 34 -37 34 -41 0 -4 -289 -8
-641 -8 l-642 0 7 63 c9 79 54 210 97 285 50 85 190 220 274 265 39 20 77 35
85 33 8 -3 47 -17 85 -31z m1059 -139 c191 -112 154 -400 -60 -462 -208 -60
-393 163 -294 356 23 46 98 113 142 128 57 19 160 8 212 -22z"/>
<path d="M1607 633 c-4 -3 -7 -37 -7 -75 l0 -68 -63 0 c-69 0 -104 -16 -94
-44 5 -13 21 -16 82 -16 l75 0 0 -74 c0 -61 3 -75 17 -80 28 -11 43 22 43 90
l0 63 72 3 c62 3 73 6 76 22 6 27 -15 36 -85 36 l-63 0 0 59 c0 33 -3 66 -6
75 -6 16 -35 22 -47 9z"/>
</g>
</svg>
