<?xml version="1.0" standalone="no"?>
<!DOCTYPE svg PUBLIC "-//W3C//DTD SVG 20010904//EN"
 "http://www.w3.org/TR/2001/REC-SVG-20010904/DTD/svg10.dtd">
<svg version="1.0" xmlns="http://www.w3.org/2000/svg"
 width="250.000000pt" height="250.000000pt" viewBox="0 0 250.000000 250.000000"
 preserveAspectRatio="xMidYMid meet">

<g transform="translate(0.000000,250.000000) scale(0.100000,-0.100000)"
fill="#000000" stroke="none">
<path d="M892 2386 c-261 -64 -452 -309 -452 -581 0 -147 54 -289 155 -401
l54 -61 -73 -46 c-227 -144 -374 -394 -393 -664 l-6 -93 580 0 581 0 16 -71
c52 -229 252 -389 486 -389 140 0 264 54 360 156 147 158 179 370 84 562 -90
183 -295 298 -493 277 l-56 -7 -44 56 c-49 62 -150 148 -223 190 l-48 28 54
60 c64 70 118 169 140 254 20 78 20 210 1 293 -48 203 -226 382 -431 435 -74
19 -217 20 -292 2z m273 -71 c231 -61 395 -272 395 -510 0 -240 -169 -455
-401 -510 -383 -90 -724 251 -634 634 43 180 195 337 376 385 72 19 191 20
264 1z m-384 -1050 c164 -74 342 -74 511 2 67 30 77 27 179 -39 55 -35 189
-160 189 -176 0 -4 -26 -20 -57 -37 -124 -65 -226 -204 -254 -347 l-12 -58
-544 0 -544 0 6 48 c31 223 128 398 299 536 46 37 145 96 162 96 7 0 36 -11
65 -25z m1192 -282 c63 -20 155 -82 195 -133 77 -95 113 -223 94 -336 -24
-144 -115 -263 -249 -327 -63 -30 -76 -32 -173 -32 -97 0 -110 2 -173 32 -273
130 -340 475 -132 688 111 114 284 157 438 108z"/>
<path d="M1745 828 c-2 -7 -6 -44 -7 -83 l-3 -70 -77 -3 -78 -3 0 -94 0 -95
80 0 80 0 0 -80 0 -80 100 0 100 0 0 80 0 80 80 0 80 0 0 95 0 95 -80 0 -79 0
-3 83 -3 82 -93 3 c-68 2 -94 -1 -97 -10z m125 -148 l0 -80 80 0 c79 0 80 0
80 -25 0 -25 -1 -25 -80 -25 l-80 0 0 -80 0 -80 -30 0 -30 0 0 80 0 80 -80 0
c-79 0 -80 0 -80 25 0 25 1 25 80 25 l80 0 0 80 0 80 30 0 30 0 0 -80z"/>
</g>
</svg>
