<svg xmlns="http://www.w3.org/2000/svg" width="45" height="31.5" viewBox="0 0 45 31.5">
  <path id="Icon_awesome-money-check" data-name="Icon awesome-money-check" d="M0,31.5a2.25,2.25,0,0,0,2.25,2.25h40.5A2.25,2.25,0,0,0,45,31.5V9H0ZM31.5,16.875a1.125,1.125,0,0,1,1.125-1.125h6.75A1.125,1.125,0,0,1,40.5,16.875v2.25a1.125,1.125,0,0,1-1.125,1.125h-6.75A1.125,1.125,0,0,1,31.5,19.125Zm0,8.438a.562.562,0,0,1,.563-.562h7.875a.562.562,0,0,1,.563.563v1.125a.562.562,0,0,1-.562.563H32.063a.562.562,0,0,1-.562-.562Zm-27-6.75A.562.562,0,0,1,5.063,18H26.438a.562.562,0,0,1,.563.563v1.125a.562.562,0,0,1-.562.563H5.063a.562.562,0,0,1-.562-.562Zm0,6.75a.562.562,0,0,1,.563-.562H17.438a.562.562,0,0,1,.563.563v1.125a.562.562,0,0,1-.562.563H5.063a.562.562,0,0,1-.562-.562ZM43.875,2.25H1.125A1.125,1.125,0,0,0,0,3.375V6.75H45V3.375A1.125,1.125,0,0,0,43.875,2.25Z" transform="translate(0 -2.25)"/>
</svg>
