<svg enable-background="new 0 0 24 24" height="512" viewBox="0 0 24 24" width="512" xmlns="http://www.w3.org/2000/svg"><path d="m4 8h9.95c-.602 1.207-.95 2.563-.95 4s.348 2.793.95 4h-9.95c-2.206 0-4-1.795-4-4 0-2.206 1.795-4 4-4z" fill="#00bcd4"/><path d="m13 12h-13c0 2.205 1.794 4 4 4h9.95c-.602-1.207-.95-2.562-.95-4z" fill="#00a4b9"/><path d="m10 12c0 3.859 3.14 7 7 7 3.859 0 7-3.14 7-7 0-3.859-3.14-7-7-7-3.859 0-7 3.14-7 7z" fill="#607d8b"/><path d="m14 12c0-1.654 1.346-3 3-3s3 1.346 3 3-1.346 3-3 3-3-1.346-3-3z" fill="#fafafa"/><path d="m17 5c-3.859 0-7 3.14-7 7 0 3.859 3.14 7 7 7v-4c-1.654 0-3-1.346-3-3s1.346-3 3-3z" fill="#546d79"/><path d="m17 9c-1.654 0-3 1.346-3 3s1.346 3 3 3z" fill="#dadada"/></svg>