<svg xmlns="http://www.w3.org/2000/svg" width="45" height="31.5" viewBox="0 0 45 31.5">
  <path id="Icon_awesome-truck-moving" data-name="Icon awesome-truck-moving" d="M43.685,16.685l-4.113-4.113a4.5,4.5,0,0,0-3.185-1.315H33.75V4.5A2.248,2.248,0,0,0,31.5,2.25H2.25A2.248,2.248,0,0,0,0,4.5V28.125a5.611,5.611,0,0,0,10.125,3.347A5.611,5.611,0,0,0,20.25,28.125,5.926,5.926,0,0,0,20.138,27H31.613a5.4,5.4,0,0,0-.112,1.125,5.625,5.625,0,1,0,11.25,0A5.926,5.926,0,0,0,42.638,27h1.237A1.128,1.128,0,0,0,45,25.875V19.863A4.485,4.485,0,0,0,43.685,16.685ZM5.625,30.375a2.25,2.25,0,1,1,2.25-2.25A2.257,2.257,0,0,1,5.625,30.375Zm9,0a2.25,2.25,0,1,1,2.25-2.25A2.257,2.257,0,0,1,14.625,30.375ZM33.75,14.625h2.637a1.117,1.117,0,0,1,.795.33L40.226,18H33.75Zm3.375,15.75a2.25,2.25,0,1,1,2.25-2.25A2.257,2.257,0,0,1,37.125,30.375Z" transform="translate(0 -2.25)"/>
</svg>
