<?xml version="1.0" standalone="no"?>
<!DOCTYPE svg PUBLIC "-//W3C//DTD SVG 20010904//EN"
 "http://www.w3.org/TR/2001/REC-SVG-20010904/DTD/svg10.dtd">
<svg version="1.0" xmlns="http://www.w3.org/2000/svg"
 width="267.000000pt" height="267.000000pt" viewBox="0 0 267.000000 267.000000"
 preserveAspectRatio="xMidYMid meet">

<g transform="translate(0.000000,267.000000) scale(0.100000,-0.100000)"
fill="#000000" stroke="none">
<path d="M1180 2227 c-206 -70 -330 -242 -330 -458 0 -149 46 -255 155 -358
187 -177 485 -171 670 14 186 186 192 474 15 668 -99 108 -211 157 -357 157
-64 0 -106 -7 -153 -23z"/>
<path d="M912 1257 c-232 -122 -403 -341 -463 -593 -24 -103 -20 -140 22 -180
l30 -29 644 -5 643 -5 -53 47 c-96 86 -142 198 -132 320 13 153 117 286 260
334 l50 17 -24 19 c-38 30 -133 85 -170 98 -31 11 -38 10 -84 -19 -88 -54
-158 -74 -282 -79 -131 -5 -217 15 -316 74 -32 19 -59 34 -60 34 -1 0 -30 -15
-65 -33z"/>
<path d="M1881 1104 c-94 -34 -165 -98 -205 -183 -32 -69 -30 -219 3 -281 56
-105 121 -158 230 -186 148 -37 312 41 381 181 35 72 40 189 10 267 -28 74
-96 150 -167 184 -70 35 -184 43 -252 18z m137 -126 c7 -7 12 -42 12 -85 l0
-73 75 0 c64 0 76 -3 85 -20 8 -14 8 -26 0 -40 -9 -17 -21 -20 -85 -20 l-75 0
0 -66 c0 -73 -12 -104 -40 -104 -36 0 -50 27 -50 101 l0 69 -67 0 c-38 0 -73
4 -79 8 -17 11 -22 35 -12 55 7 14 22 17 83 17 l75 0 0 66 c0 36 5 74 10 85
12 21 50 25 68 7z"/>
</g>
</svg>
