<svg xmlns="http://www.w3.org/2000/svg" width="42.508" height="38" viewBox="0 0 42.508 38">
  <path id="Icon_awesome-shopping-cart" data-name="Icon awesome-shopping-cart" d="M37.133,21.186,40.457,6.561A1.688,1.688,0,0,0,38.812,4.5H11.194L10.55,1.349A1.687,1.687,0,0,0,8.9,0H1.688A1.687,1.687,0,0,0,0,1.688V2.813A1.687,1.687,0,0,0,1.688,4.5H6.6L11.54,28.648a3.938,3.938,0,1,0,4.714.6H31a3.936,3.936,0,1,0,4.472-.732l.388-1.707a1.688,1.688,0,0,0-1.646-2.061H15.336l-.46-2.25H35.488A1.687,1.687,0,0,0,37.133,21.186Z" transform="translate(1 1)" fill="none" stroke="#000" stroke-width="2"/>
</svg>
