<svg xmlns="http://www.w3.org/2000/svg" width="147.907" height="132.006" viewBox="0 0 147.907 132.006">
  <g id="cart" transform="translate(-2.25 -4.5)">
    <path id="Caminho_59" data-name="Caminho 59" d="M32.126,38a11,11,0,1,1-11-11A11,11,0,0,1,32.126,38Z" transform="translate(30.627 87.505)"/>
    <path id="Caminho_60" data-name="Caminho 60" d="M47.876,38a11,11,0,1,1-11-11A11,11,0,0,1,47.876,38Z" transform="translate(91.88 87.505)"/>
    <path id="Caminho_61" data-name="Caminho 61" d="M148.283,24.017A8.223,8.223,0,0,0,141.9,21H37.276L35.168,9.047A5.5,5.5,0,0,0,29.751,4.5h-22a5.5,5.5,0,1,0,0,11H25.136L40.83,104.458A5.5,5.5,0,0,0,46.252,109h88a5.5,5.5,0,0,0,0-11H50.867L48.926,87H132a8.272,8.272,0,0,0,8.1-6.63l9.9-49.5a8.253,8.253,0,0,0-1.721-6.85Z" transform="translate(0 0)"/>
  </g>
</svg>
