<?xml version="1.0" encoding="iso-8859-1"?>
<!-- Generator: Adobe Illustrator 19.0.0, SVG Export Plug-In . SVG Version: 6.00 Build 0)  -->
<svg version="1.1" id="Capa_1" xmlns="http://www.w3.org/2000/svg" xmlns:xlink="http://www.w3.org/1999/xlink" x="0px" y="0px"
	 viewBox="0 0 64 64" style="enable-background:new 0 0 64 64;" xml:space="preserve">
<g>
	<path d="M64,29.697c0-3.584-2.916-6.5-6.5-6.5h-5.262L40.464,2.805c-0.535-0.925-1.397-1.587-2.429-1.864s-2.11-0.135-3.035,0.4
		c-0.925,0.534-1.587,1.396-1.864,2.429c-0.276,1.032-0.134,2.11,0.399,3.036L43,23.197H21l9.464-16.392
		c0.534-0.926,0.676-2.003,0.399-3.036C30.587,2.737,29.925,1.875,29,1.341c-0.925-0.535-2.003-0.677-3.035-0.399
		c-1.032,0.276-1.895,0.939-2.429,1.864L11.762,23.197H6.5c-3.584,0-6.5,2.916-6.5,6.5c0,2.723,1.685,5.057,4.066,6.023l3.438,23.21
		c0.36,2.433,2.487,4.267,4.946,4.267h38.222c2.41,0,4.477-1.72,4.916-4.089l4.33-23.382C62.308,34.763,64,32.426,64,29.697z
		 M35.068,4.287C35.206,3.772,35.537,3.34,36,3.073c0.308-0.178,0.65-0.269,0.997-0.269c0.173,0,0.348,0.023,0.521,0.069
		c0.516,0.138,0.947,0.469,1.214,0.932l12,20.784c0.267,0.463,0.338,1.002,0.2,1.518c-0.138,0.516-0.469,0.947-0.932,1.214
		c-0.462,0.267-1.001,0.337-1.518,0.2c-0.516-0.138-0.947-0.469-1.214-0.932l-12-20.784C35.001,5.342,34.93,4.803,35.068,4.287z
		 M13.268,24.589l12-20.784c0.267-0.463,0.698-0.794,1.214-0.932c0.172-0.046,0.347-0.069,0.521-0.069
		c0.347,0,0.689,0.091,0.997,0.269c0.463,0.267,0.793,0.698,0.932,1.214s0.067,1.055-0.2,1.518l-12,20.784
		c-0.267,0.463-0.698,0.794-1.214,0.932C15,27.658,14.462,27.588,14,27.321c-0.463-0.267-0.794-0.698-0.932-1.214
		C12.93,25.591,13.001,25.052,13.268,24.589z M57.798,36.197l-4.175,22.546c-0.263,1.422-1.504,2.454-2.95,2.454H12.451
		c-1.476,0-2.752-1.101-2.968-2.56l-3.324-22.44H6.5h51C57.5,36.197,57.798,36.197,57.798,36.197z M57.5,34.197h-51
		c-2.481,0-4.5-2.019-4.5-4.5s2.019-4.5,4.5-4.5h4.528c-0.047,0.473-0.018,0.955,0.108,1.428c0.276,1.032,0.939,1.895,1.864,2.429
		c0.617,0.356,1.3,0.538,1.994,0.538c0.347,0,0.697-0.046,1.042-0.138c1.032-0.276,1.895-0.938,2.429-1.864l1.381-2.392h24.309
		l1.381,2.392c0.535,0.925,1.397,1.587,2.429,1.864c0.344,0.092,0.694,0.138,1.042,0.138c0.693,0,1.377-0.182,1.994-0.538
		c0.925-0.534,1.587-1.396,1.864-2.429c0.127-0.473,0.155-0.955,0.108-1.428H57.5c2.481,0,4.5,2.019,4.5,4.5
		S59.981,34.197,57.5,34.197z"/>
	<path d="M17,56.197c1.654,0,3-1.346,3-3v-10c0-1.654-1.346-3-3-3s-3,1.346-3,3v10C14,54.852,15.346,56.197,17,56.197z M16,43.197
		c0-0.551,0.449-1,1-1s1,0.449,1,1v10c0,0.551-0.449,1-1,1s-1-0.449-1-1V43.197z"/>
	<path d="M27,56.197c1.654,0,3-1.346,3-3v-10c0-1.654-1.346-3-3-3s-3,1.346-3,3v10C24,54.852,25.346,56.197,27,56.197z M26,43.197
		c0-0.551,0.449-1,1-1s1,0.449,1,1v10c0,0.551-0.449,1-1,1s-1-0.449-1-1V43.197z"/>
	<path d="M37,56.197c1.654,0,3-1.346,3-3v-10c0-1.654-1.346-3-3-3s-3,1.346-3,3v10C34,54.852,35.346,56.197,37,56.197z M36,43.197
		c0-0.551,0.449-1,1-1s1,0.449,1,1v10c0,0.551-0.449,1-1,1s-1-0.449-1-1V43.197z"/>
	<path d="M47,56.197c1.654,0,3-1.346,3-3v-10c0-1.654-1.346-3-3-3s-3,1.346-3,3v10C44,54.852,45.346,56.197,47,56.197z M46,43.197
		c0-0.551,0.449-1,1-1s1,0.449,1,1v10c0,0.551-0.449,1-1,1s-1-0.449-1-1V43.197z"/>
</g>
<g>
</g>
<g>
</g>
<g>
</g>
<g>
</g>
<g>
</g>
<g>
</g>
<g>
</g>
<g>
</g>
<g>
</g>
<g>
</g>
<g>
</g>
<g>
</g>
<g>
</g>
<g>
</g>
<g>
</g>
</svg>
