<?xml version="1.0" standalone="no"?>
<!DOCTYPE svg PUBLIC "-//W3C//DTD SVG 20010904//EN"
 "http://www.w3.org/TR/2001/REC-SVG-20010904/DTD/svg10.dtd">
<svg version="1.0" xmlns="http://www.w3.org/2000/svg"
 width="250.000000pt" height="250.000000pt" viewBox="0 0 250.000000 250.000000"
 preserveAspectRatio="xMidYMid meet">

<g transform="translate(0.000000,250.000000) scale(0.100000,-0.100000)"
fill="#000000" stroke="none">
<path d="M783 2126 c-193 -63 -320 -269 -284 -463 34 -183 163 -312 344 -343
180 -32 358 64 440 238 30 62 32 75 32 172 0 97 -2 110 -32 172 -41 88 -113
160 -201 201 -58 27 -79 32 -162 34 -60 2 -110 -2 -137 -11z"/>
<path d="M1823 1409 c-388 -65 -549 -532 -281 -815 101 -107 209 -154 353
-154 447 0 661 540 334 845 -61 57 -173 111 -259 125 -73 11 -75 11 -147 -1z
m149 -90 c166 -35 289 -161 320 -328 32 -169 -66 -353 -229 -429 -52 -24 -69
-27 -168 -27 -101 0 -115 2 -170 29 -79 39 -149 110 -188 194 -30 62 -32 75
-32 172 0 96 3 110 29 165 55 111 170 201 288 224 62 13 90 12 150 0z"/>
<path d="M1856 1168 c-11 -16 -16 -46 -16 -105 l0 -83 -89 0 c-82 0 -91 -2
-105 -22 -21 -30 -20 -44 4 -68 17 -17 33 -20 105 -20 l85 0 0 -85 c0 -72 3
-88 20 -105 25 -25 52 -26 73 -2 13 14 17 39 17 105 l0 87 88 0 c96 0 122 12
122 58 0 41 -25 52 -121 52 l-89 0 0 89 c0 68 -4 93 -16 105 -22 23 -60 20
-78 -6z"/>
<path d="M525 1306 c-108 -72 -219 -203 -289 -341 -67 -132 -106 -275 -121
-447 l-7 -78 737 0 737 0 -51 40 c-52 41 -116 119 -146 179 -80 159 -85 364
-10 510 l25 49 -34 30 c-37 32 -121 92 -130 92 -3 0 -26 -14 -51 -31 -98 -67
-223 -94 -347 -78 -73 10 -177 51 -225 89 -14 11 -29 20 -32 20 -3 0 -29 -15
-56 -34z"/>
</g>
</svg>
